<?xml version="1.0" standalone="no"?>
<!DOCTYPE svg PUBLIC "-//W3C//DTD SVG 20010904//EN"
 "http://www.w3.org/TR/2001/REC-SVG-20010904/DTD/svg10.dtd">
<svg version="1.0" xmlns="http://www.w3.org/2000/svg"
 width="1452.000000pt" height="1437.000000pt" viewBox="0 0 1452.000000 1437.000000"
 preserveAspectRatio="xMidYMid meet">

<g transform="translate(0.000000,1437.000000) scale(0.100000,-0.100000)"
fill="#000000" stroke="none">
<path d="M0 7185 l0 -7185 7260 0 7260 0 0 7185 0 7185 -7260 0 -7260 0 0
-7185z m7730 6615 c216 -11 511 -40 725 -71 767 -110 957 -271 1090 -925 96
-473 280 -1704 359 -2404 44 -386 93 -956 83 -966 -2 -2 -73 0 -158 6 -303 21
-832 24 -1153 6 -164 -9 -300 -16 -301 -14 -2 2 23 44 54 95 147 233 221 492
221 772 0 220 -33 376 -133 626 -79 198 -90 248 -91 390 0 110 2 126 28 190
41 99 97 180 238 341 185 211 237 288 296 440 46 120 62 224 62 403 0 181 -10
252 -51 375 -170 510 -725 676 -2249 676 -414 0 -781 -14 -952 -36 -93 -12
-45 5 58 20 208 31 627 69 874 79 181 8 829 6 1000 -3z m1951 -4495 c343 -27
577 -76 841 -174 176 -66 294 -119 648 -294 454 -224 556 -261 770 -277 243
-20 341 -56 387 -144 14 -27 13 -31 -22 -82 -143 -207 -452 -289 -994 -263
-289 13 -470 31 -1106 109 -468 57 -903 106 -2075 231 -206 22 -586 62 -845
90 -258 27 -522 54 -585 59 -145 12 -198 18 -335 36 -92 12 -380 43 -960 104
-175 18 -383 40 -630 65 -137 14 -306 32 -375 40 -69 7 -185 19 -257 26 -73 7
-131 14 -129 16 2 2 244 -1 537 -7 807 -17 1086 -1 1469 81 519 113 682 143
1200 218 1067 155 1891 211 2461 166z m657 -2372 c10 -10 34 -61 51 -113 18
-52 66 -165 106 -250 89 -185 109 -260 102 -383 -6 -112 -42 -190 -122 -266
-73 -69 -171 -113 -344 -155 -147 -35 -192 -54 -224 -97 -50 -68 -88 -372 -69
-560 18 -174 20 -165 -38 -194 -27 -14 -56 -25 -64 -25 -9 0 -33 35 -56 80
-45 85 -106 150 -143 150 -42 0 -147 -30 -212 -59 -77 -35 -81 -29 -37 64 38
80 67 113 181 203 150 118 305 257 367 328 69 79 100 95 269 146 142 43 220
82 260 130 114 135 93 292 -69 511 -87 117 -109 178 -104 282 5 86 28 146 76
198 30 32 43 33 70 10z m-819 -2144 c100 -12 145 -29 188 -71 48 -46 58 -89
54 -232 l-1 -58 -57 7 c-116 13 -213 51 -372 143 -103 60 -139 78 -228 113
-13 5 -23 16 -23 24 0 21 49 40 151 59 149 27 182 29 288 15z m31 -473 c0 -2
-12 -30 -26 -62 -56 -126 -61 -240 -16 -386 66 -211 50 -450 -39 -618 -116
-219 -382 -318 -739 -276 -176 20 -425 86 -500 132 -18 11 -19 13 -5 9 153
-49 371 -85 510 -85 208 0 310 45 373 165 24 44 27 61 27 145 0 87 -3 100 -32
155 -50 96 -138 176 -253 229 -102 47 -113 78 -47 139 67 62 146 112 253 159
126 56 209 105 359 211 110 78 135 94 135 83z m-2359 -1711 c24 -552 -1 -1179
-67 -1659 -30 -217 -112 -651 -121 -642 -3 2 1 51 8 108 16 141 6 402 -21 533
-73 351 -261 691 -515 935 l-68 64 28 53 c111 213 364 539 613 793 89 90 115
111 122 99 5 -8 14 -136 21 -284z"/>
</g>
</svg>
